<?xml version="1.0" encoding="UTF-8" standalone="no"?>
<!-- Created with Inkscape (http://www.inkscape.org/) -->

<svg
   xmlns:dc="http://purl.org/dc/elements/1.1/"
   xmlns:cc="http://creativecommons.org/ns#"
   xmlns:rdf="http://www.w3.org/1999/02/22-rdf-syntax-ns#"
   xmlns:svg="http://www.w3.org/2000/svg"
   xmlns="http://www.w3.org/2000/svg"
   xmlns:xlink="http://www.w3.org/1999/xlink"
   xmlns:sodipodi="http://sodipodi.sourceforge.net/DTD/sodipodi-0.dtd"
   xmlns:inkscape="http://www.inkscape.org/namespaces/inkscape"
   width="744.09448819"
   height="1052.3622047"
   id="svg2"
   version="1.1"
   inkscape:version="0.48.4 r9939"
   sodipodi:docname="database.svg">
  <defs
     id="defs4">
    <marker
       inkscape:stockid="TriangleOutM"
       orient="auto"
       refY="0.0"
       refX="0.0"
       id="TriangleOutM"
       style="overflow:visible">
      <path
         id="path3985"
         d="M 5.77,0.0 L -2.88,5.0 L -2.88,-5.0 L 5.77,0.0 z "
         style="fill-rule:evenodd;stroke:#000000;stroke-width:1.0pt"
         transform="scale(0.4)" />
    </marker>
    <marker
       inkscape:stockid="TriangleOutL"
       orient="auto"
       refY="0.0"
       refX="0.0"
       id="TriangleOutL"
       style="overflow:visible">
      <path
         id="path3982"
         d="M 5.77,0.0 L -2.88,5.0 L -2.88,-5.0 L 5.77,0.0 z "
         style="fill-rule:evenodd;stroke:#000000;stroke-width:1.0pt"
         transform="scale(0.8)" />
    </marker>
    <marker
       inkscape:stockid="Arrow1Lend"
       orient="auto"
       refY="0.0"
       refX="0.0"
       id="Arrow1Lend"
       style="overflow:visible;">
      <path
         id="path3843"
         d="M 0.0,0.0 L 5.0,-5.0 L -12.5,0.0 L 5.0,5.0 L 0.0,0.0 z "
         style="fill-rule:evenodd;stroke:#000000;stroke-width:1.0pt;"
         transform="scale(0.8) rotate(180) translate(12.5,0)" />
    </marker>
    <linearGradient
       inkscape:collect="always"
       id="linearGradient3869">
      <stop
         style="stop-color:#2ad4ff;stop-opacity:1;"
         offset="0"
         id="stop3871" />
      <stop
         style="stop-color:#2ad4ff;stop-opacity:0;"
         offset="1"
         id="stop3873" />
    </linearGradient>
    <linearGradient
       id="linearGradient3851">
      <stop
         style="stop-color:#0000ff;stop-opacity:1;"
         offset="0"
         id="stop3853" />
      <stop
         id="stop3859"
         offset="0.5"
         style="stop-color:#0000ff;stop-opacity:0.49803922;" />
      <stop
         style="stop-color:#ffffff;stop-opacity:0"
         offset="1"
         id="stop3855" />
    </linearGradient>
    <radialGradient
       inkscape:collect="always"
       xlink:href="#linearGradient3869"
       id="radialGradient3793"
       gradientUnits="userSpaceOnUse"
       gradientTransform="matrix(0.20640005,0.00210043,-0.00173266,0.17026064,-34.459871,17.411781)"
       cx="1461.7474"
       cy="1004.8456"
       fx="1461.7474"
       fy="1004.8456"
       r="580.33527" />
  </defs>
  <sodipodi:namedview
     id="base"
     pagecolor="#ffffff"
     bordercolor="#666666"
     borderopacity="1.0"
     inkscape:pageopacity="0.0"
     inkscape:pageshadow="2"
     inkscape:zoom="1.4362303"
     inkscape:cx="267.60631"
     inkscape:cy="821.36354"
     inkscape:document-units="px"
     inkscape:current-layer="layer1"
     showgrid="false"
     inkscape:window-width="1600"
     inkscape:window-height="796"
     inkscape:window-x="-8"
     inkscape:window-y="-8"
     inkscape:window-maximized="1" />
  <metadata
     id="metadata7">
    <rdf:RDF>
      <cc:Work
         rdf:about="">
        <dc:format>image/svg+xml</dc:format>
        <dc:type
           rdf:resource="http://purl.org/dc/dcmitype/StillImage" />
        <dc:title />
      </cc:Work>
    </rdf:RDF>
  </metadata>
  <g
     inkscape:label="Layer 1"
     inkscape:groupmode="layer"
     id="layer1">
    <image
       sodipodi:absref="arduino.jpg"
       xlink:href="arduino.jpg"
       width="55.7309"
       height="38.598808"
       id="image2993"
       x="14.805658"
       y="221.99702" />
    <image
       y="59.174248"
       x="204.89336"
       id="image3002"
       xlink:href="excel.gif"
       height="65.392754"
       width="65.392754" />
    <path
       d="M 334.71216,187.76519 H 194.26883 c -22.81586,0 -41.30688,-18.49154 -41.30688,-41.30687 0,-22.81535 18.49153,-41.30687 41.30688,-41.30687 1.25882,0 2.45259,0.25817 3.67888,0.37125 -2.32351,-5.16337 -3.67888,-10.859063 -3.67888,-16.893997 0,-22.815847 18.49152,-41.306862 41.30685,-41.306862 7.45486,0 14.36085,2.129885 20.39526,5.58314 7.48687,-17.846117 25.12286,-30.367257 45.69573,-30.367257 27.38181,0 49.56824,22.186431 49.56824,49.568233 0,6.518741 -1.33938,12.71477 -3.63035,18.426993 21.08921,5.711705 36.67582,24.78412 36.67582,47.66399 0,27.38181 -22.1864,49.56825 -49.56822,49.56825 z"
       id="path5"
       style="fill:url(#radialGradient3793);fill-opacity:1;stroke:#0000ff;stroke-width:7.10486984;stroke-miterlimit:4;stroke-opacity:1;stroke-dasharray:none"
       inkscape:connector-curvature="0" />
    <image
       y="217.37238"
       x="454.35553"
       id="image3013"
       xlink:href="computer.png"
       height="66.051437"
       width="66.051437" />
    <g
       id="g3830"
       transform="matrix(0.710487,0,0,0.710487,4.2864306,5.496488)">
      <image
         width="215.52361"
         height="215.52361"
         xlink:href="dropbox.jpg"
         id="image3806"
         x="268.6142"
         y="400.27304" />
      <image
         sodipodi:absref="csv.jpg"
         xlink:href="csv.jpg"
         width="59.266102"
         height="59.266102"
         id="image3809"
         x="346.74295"
         y="411.28482" />
    </g>
    <g
       id="g3819"
       transform="matrix(0.710487,0,0,0.710487,-29.826197,170.75322)">
      <path
         inkscape:connector-curvature="0"
         id="path3813"
         d="m 505.89652,52.213212 c -1.67738,-2.889995 -3.37766,-5.8519 -3.77839,-6.582011 -0.40074,-0.730109 -1.42535,-2.539544 -2.2769,-4.020961 l -1.54828,-2.693487 1.88163,-3.262174 c 6.23958,-10.817542 11.30917,-19.593311 15.19526,-26.3039041 l 4.42672,-7.6441661 0.79214,1.397984 c 0.43568,0.768891 0.96643,1.683795 1.17944,2.033119 0.21301,0.349324 0.63532,1.076719 0.93846,1.616434 0.77516,1.3801101 4.79208,8.3349802 6.41815,11.1123542 l 1.36073,2.324161 -5.21092,9.006122 c -5.02176,8.679171 -5.95441,10.325624 -7.81706,13.799704 -0.47119,0.878823 -1.21872,2.186164 -1.66118,2.905201 -1.9822,3.221202 -4.96031,8.39399 -4.96063,8.616291 -2e-4,0.134513 -0.32703,0.624423 -0.7263,1.088689 -0.39927,0.464265 -0.72595,1.012169 -0.72595,1.217564 0,1.107604 -0.7219,0.153002 -3.48692,-4.61092 z"
         style="fill:#008000" />
      <path
         style="fill:#0000ff"
         d="m 512.05492,52.4215 c 1.6648,-2.897261 3.38044,-5.850297 3.81254,-6.562293 0.43209,-0.712005 1.48722,-2.503813 2.34473,-3.981785 l 1.55912,-2.687228 3.76594,-6.64e-4 c 12.48806,-0.0022 22.62289,0.0027 30.37748,0.01465 l 8.8334,0.01364 -0.81495,1.384814 c -0.44821,0.76165 -0.97538,1.678622 -1.17149,2.03771 -0.1961,0.359088 -0.61506,1.088418 -0.93102,1.620729 -0.80795,1.361174 -4.82421,8.316422 -6.41711,11.112954 l -1.33297,2.340195 -10.40499,-0.01217 c -10.02726,-0.01174 -11.91945,0.0033 -15.85945,0.126362 -0.99668,0.03111 -2.50264,0.03705 -3.34657,0.01319 -3.78072,-0.106921 -9.74954,-0.101045 -9.94224,0.0098 -0.11661,0.06706 -0.70429,0.02883 -1.30597,-0.08496 -0.60167,-0.113786 -1.23951,-0.122897 -1.41741,-0.02024 -0.95934,0.553577 -0.49332,-0.548798 2.25096,-5.324694 z"
         id="path3815"
         inkscape:connector-curvature="0" />
      <path
         style="fill:#ffcf63;fill-opacity:1"
         d="m 525.62394,1.7248812 c 3.34151,-0.0051 6.75673,0.00595 7.58937,0.02459 0.83265,0.018593 2.91196,0.037602 4.62068,0.042146 l 3.10676,0.00827 1.88183,3.262054 c 6.24026,10.8171478 11.29883,19.5992798 15.16222,26.3229668 l 4.40087,7.659081 -1.60675,-0.01424 c -0.88372,-0.0078 -1.94143,-0.0064 -2.35046,0.0031 -0.40904,0.0095 -1.25014,0.01085 -1.86911,0.0031 -1.58277,-0.01991 -9.61433,-0.02474 -12.83265,-0.0077 l -2.69316,0.01429 -5.18722,-9.019788 c -4.9989,-8.692359 -5.9572,-10.324011 -8.03197,-13.675731 -0.52484,-0.847874 -1.28228,-2.149499 -1.6832,-2.892505 -1.79601,-3.328602 -4.78279,-8.496394 -4.97506,-8.6079617 -0.11635,-0.067506 -0.3768,-0.5957172 -0.5788,-1.1737851 -0.20199,-0.578058 -0.51272,-1.135165 -0.69053,-1.2379977 -0.95878,-0.5545277 0.22899,-0.7015092 5.73718,-0.7099383 z"
         id="path3817"
         inkscape:connector-curvature="0" />
    </g>
    <g
       id="g5952">
      <path
         sodipodi:nodetypes="cc"
         inkscape:connector-curvature="0"
         id="path3834"
         d="M 85.669952,227.34157 142.48238,187.63265"
         style="opacity:0.98999999;fill:none;stroke:#000000;stroke-width:7.10486984;stroke-linecap:butt;stroke-linejoin:miter;stroke-miterlimit:4;stroke-opacity:1;stroke-dasharray:none;marker-end:url(#TriangleOutM)" />
      <path
         style="opacity:0.98999999;fill:none;stroke:#000000;stroke-width:7.10486984;stroke-linecap:butt;stroke-linejoin:miter;stroke-miterlimit:4;stroke-opacity:1;stroke-dasharray:none;marker-end:url(#TriangleOutM)"
         d="m 382.74985,175.83126 57.91474,38.08324"
         id="path5942"
         inkscape:connector-curvature="0"
         sodipodi:nodetypes="cc" />
    </g>
    <text
       xml:space="preserve"
       style="font-size:17.05168724px;font-style:normal;font-variant:normal;font-weight:normal;font-stretch:normal;line-height:125%;letter-spacing:0px;word-spacing:0px;fill:#000000;fill-opacity:1;stroke:none;font-family:Calibri;-inkscape-font-specification:Calibri"
       x="81.050339"
       y="177.2583"
       id="text5944"
       sodipodi:linespacing="125%"><tspan
         sodipodi:role="line"
         id="tspan5946"
         x="81.050339"
         y="177.2583"
         style="font-size:24px">(1)</tspan></text>
    <text
       sodipodi:linespacing="125%"
       id="text5948"
       y="331.82962"
       x="81.050339"
       style="font-size:17.05168724px;font-style:normal;font-variant:normal;font-weight:normal;font-stretch:normal;line-height:125%;letter-spacing:0px;word-spacing:0px;fill:#000000;fill-opacity:1;stroke:none;font-family:Calibri;-inkscape-font-specification:Calibri"
       xml:space="preserve"><tspan
         style="font-size:24px"
         y="331.82962"
         x="81.050339"
         id="tspan5950"
         sodipodi:role="line">(2)</tspan></text>
    <g
       id="g5956"
       transform="matrix(1,0,0,-1,0,513.87931)">
      <path
         style="opacity:0.98999999;fill:none;stroke:#000000;stroke-width:7.10486984;stroke-linecap:butt;stroke-linejoin:miter;stroke-miterlimit:4;stroke-opacity:1;stroke-dasharray:none;marker-end:url(#TriangleOutM)"
         d="M 85.669952,227.34157 142.48238,187.63265"
         id="path5958"
         inkscape:connector-curvature="0"
         sodipodi:nodetypes="cc" />
      <path
         sodipodi:nodetypes="cc"
         inkscape:connector-curvature="0"
         id="path5960"
         d="m 382.74985,175.83126 57.91474,38.08324"
         style="opacity:0.98999999;fill:none;stroke:#000000;stroke-width:7.10486984;stroke-linecap:butt;stroke-linejoin:miter;stroke-miterlimit:4;stroke-opacity:1;stroke-dasharray:none;marker-end:url(#TriangleOutM)" />
    </g>
    <text
       sodipodi:linespacing="125%"
       id="text5962"
       y="164.48508"
       x="204.31201"
       style="font-size:17.05168724px;font-style:normal;font-variant:normal;font-weight:normal;font-stretch:normal;line-height:125%;letter-spacing:0px;word-spacing:0px;fill:#000000;fill-opacity:1;stroke:none;font-family:Calibri;-inkscape-font-specification:Calibri"
       xml:space="preserve"><tspan
         style="font-size:24px"
         y="164.48508"
         x="204.31201"
         id="tspan5964"
         sodipodi:role="line">fusion table</tspan></text>
    <text
       xml:space="preserve"
       style="font-size:17.05168724px;font-style:normal;font-variant:normal;font-weight:normal;font-stretch:normal;line-height:125%;letter-spacing:0px;word-spacing:0px;fill:#000000;fill-opacity:1;stroke:none;font-family:Calibri;-inkscape-font-specification:Calibri"
       x="281.59006"
       y="119.14011"
       id="text5966"
       sodipodi:linespacing="125%"><tspan
         sodipodi:role="line"
         id="tspan5968"
         x="281.59006"
         y="119.14011"
         style="font-size:24px">form</tspan></text>
    <text
       sodipodi:linespacing="125%"
       id="text5970"
       y="74.293076"
       x="113.56567"
       style="font-size:17.05168724px;font-style:normal;font-variant:normal;font-weight:normal;font-stretch:normal;line-height:125%;letter-spacing:0px;word-spacing:0px;fill:#000000;fill-opacity:1;stroke:none;font-family:Calibri;-inkscape-font-specification:Calibri"
       xml:space="preserve"><tspan
         style="font-size:24px"
         y="74.293076"
         x="113.56567"
         id="tspan5972"
         sodipodi:role="line">https</tspan></text>
    <text
       xml:space="preserve"
       style="font-size:17.05168724px;font-style:normal;font-variant:normal;font-weight:normal;font-stretch:normal;line-height:125%;letter-spacing:0px;word-spacing:0px;fill:#000000;fill-opacity:1;stroke:none;font-family:Calibri;-inkscape-font-specification:Calibri"
       x="128.01692"
       y="282.93314"
       id="text5974"
       sodipodi:linespacing="125%"><tspan
         sodipodi:role="line"
         id="tspan5976"
         x="128.01692"
         y="282.93314"
         style="font-size:24px">write to local</tspan></text>
  </g>
</svg>
